<?xml version="1.0" encoding="utf-8"?>
<!-- Uploaded to: SVG Repo, www.svgrepo.com, Generator: SVG Repo Mixer Tools -->
<svg fill="#ffffff" width="800px" height="800px" viewBox="0 0 32 32" version="1.1" xmlns="http://www.w3.org/2000/svg">
<title>spear-head</title>
<path d="M24.408 14.896c-2.372 1.702-4.68 1.836-7.169 0.825 0.002-0.043 0.004-0.086 0.004-0.129 0-1.25-1.013-2.263-2.263-2.263-0.219 0-0.431 0.032-0.632 0.090l-12.209-12.178-0.776 0.007 0.004 1.875 11.556 11.526c-0.132 0.287-0.206 0.607-0.206 0.944 0 1.25 1.013 2.263 2.263 2.263 0.123 0 0.243-0.010 0.361-0.029 0.841 2.459 0.638 4.776-0.787 6.925 4.004 2.724 10.219 5.237 15.404 5.549 0.226-5.328-2.646-11.314-5.549-15.404z"></path>
</svg>